<?xml version="1.0"?><svg width="100%" height="100%" viewBox="0 0 320 60" version="1.1" xmlns="http://www.w3.org/2000/svg" xmlns:xlink="http://www.w3.org/1999/xlink" xml:space="preserve" xmlns:serif="http://www.serif.com/" style="fill-rule:evenodd;clip-rule:evenodd;stroke-linejoin:round;stroke-miterlimit:2;"><g><g><g><g><text x="62.952px" y="49.956px" style="font-family:&#39;Quicksand-Light_Bold&#39;, &#39;Quicksand&#39;;font-weight:300;font-size:54.435px;fill:#1b5faa;">AerieCur<tspan x="275.249px " y="49.956px ">a</tspan></text><text x="306.708px" y="26.961px" style="font-family:&#39;Quicksand-Light_Medium&#39;, &#39;Quicksand&#39;;font-weight:300;font-size:16.331px;fill:#b1b1b1;">™</text></g><g><path d="M29.479,59.286l-0.032,0c-4.854,-0.017 -8.803,-4.071 -8.803,-9.036l-0,-5.74c-0,-0.566 0.453,-1.025 1.012,-1.025c0.559,0 1.012,0.459 1.012,1.025l-0,5.74c-0,3.839 3.044,6.973 6.786,6.986c0.008,0 0.017,0 0.025,0c1.814,0 3.521,-0.714 4.807,-2.013c1.292,-1.304 2.003,-3.039 2.003,-4.887l-0,-8.724c-0,-1.228 0.987,-2.228 2.199,-2.228l10.954,-0c3.79,-0 6.883,-3.085 6.896,-6.876c0.006,-1.848 -0.699,-3.587 -1.986,-4.895c-1.288,-1.309 -3.001,-2.03 -4.825,-2.03c-4.395,0 -8.567,1.956 -12.464,3.959c-2.657,1.366 -5.316,2.85 -7.888,4.286c-1.644,0.918 -3.344,1.867 -5.032,2.779c-4.058,2.192 -8.931,4.433 -14.309,4.433c-2.091,-0 -4.123,-0.417 -6.041,-1.239c-0.515,-0.22 -0.756,-0.822 -0.538,-1.343c0.218,-0.522 0.811,-0.765 1.326,-0.545c1.667,0.714 3.434,1.077 5.253,1.077c4.932,-0 9.519,-2.119 13.357,-4.192c1.676,-0.905 3.37,-1.851 5.008,-2.766c2.586,-1.443 5.261,-2.937 7.948,-4.318c4.116,-2.115 8.539,-4.181 13.38,-4.181c2.366,-0 4.588,0.935 6.258,2.633c1.67,1.697 2.585,3.952 2.577,6.349c-0.017,4.918 -4.018,8.919 -8.92,8.919l-10.954,0c-0.096,0 -0.175,0.08 -0.175,0.178l-0,8.724c-0,2.396 -0.923,4.648 -2.598,6.34c-1.669,1.684 -3.882,2.61 -6.236,2.61Z" style="fill:#1b5faa;fill-rule:nonzero;"></path><path d="M9.834,36.753c-2.365,0 -4.587,-0.935 -6.257,-2.633c-1.67,-1.697 -2.585,-3.952 -2.577,-6.349c0.017,-4.918 4.018,-8.919 8.919,-8.919l10.954,-0c0.097,-0 0.176,-0.08 0.176,-0.178l-0,-8.724c-0,-2.396 0.923,-4.648 2.598,-6.34c1.668,-1.684 3.882,-2.61 6.236,-2.61l0.031,-0c4.854,0.017 8.804,4.071 8.804,9.037l-0,5.739c-0,0.566 -0.454,1.025 -1.012,1.025c-0.559,0 -1.012,-0.459 -1.012,-1.025l-0,-5.739c-0,-3.839 -3.044,-6.974 -6.787,-6.987c-0.008,-0 -0.016,-0 -0.024,-0c-1.815,-0 -3.521,0.714 -4.807,2.013c-1.292,1.304 -2.003,3.04 -2.003,4.887l-0,8.724c-0,1.229 -0.987,2.228 -2.2,2.228l-10.954,0c-3.789,0 -6.882,3.085 -6.895,6.876c-0.006,1.848 0.699,3.587 1.986,4.895c1.287,1.309 3.001,2.03 4.824,2.03c4.395,-0 8.568,-1.956 12.465,-3.959c2.656,-1.366 5.315,-2.85 7.886,-4.285c1.645,-0.919 3.345,-1.868 5.034,-2.78c4.058,-2.192 8.931,-4.432 14.308,-4.432c2.091,-0 4.124,0.416 6.042,1.238c0.515,0.221 0.756,0.822 0.538,1.343c-0.218,0.522 -0.812,0.766 -1.326,0.545c-1.667,-0.714 -3.435,-1.076 -5.254,-1.076c-4.932,-0 -9.519,2.119 -13.356,4.191c-1.676,0.906 -3.371,1.852 -5.009,2.766c-2.586,1.444 -5.26,2.937 -7.947,4.318c-4.116,2.116 -8.539,4.181 -13.381,4.181Z" style="fill:#1b5faa;fill-rule:nonzero;"></path></g></g></g></g></svg>