<?xml version="1.0"?><svg width="100%" height="100%" viewBox="0 0 2750 650" version="1.1" xmlns="http://www.w3.org/2000/svg" xmlns:xlink="http://www.w3.org/1999/xlink" xml:space="preserve" xmlns:serif="http://www.serif.com/" style="fill-rule:evenodd;clip-rule:evenodd;stroke-linejoin:round;stroke-miterlimit:2;"><g><g><g><g><text x="536.94px" y="496.419px" style="font-family:&#39;Quicksand-Light_Bold&#39;, &#39;Quicksand&#39;;font-weight:300;font-size:470.977px;fill:#1b5faa;">AerieCur<tspan x="2373.75px " y="496.419px ">a</tspan></text><text x="2645.94px" y="297.468px" style="font-family:&#39;Quicksand-Light_Medium&#39;, &#39;Quicksand&#39;;font-weight:300;font-size:141.293px;fill:#b1b1b1;">™</text></g><g><path d="M247.324,577.148l-0.272,0c-41.996,-0.147 -76.166,-35.22 -76.166,-78.184l0,-49.66c0,-4.9 3.921,-8.868 8.757,-8.868c4.832,-0 8.753,3.968 8.753,8.868l-0,49.66c-0,33.215 26.34,60.332 58.717,60.444c0.069,0.004 0.142,0.004 0.211,0.004c15.702,-0 30.467,-6.18 41.594,-17.415c11.177,-11.285 17.33,-26.302 17.33,-42.288l-0,-75.477c-0,-10.63 8.539,-19.281 19.03,-19.281l94.775,0c32.783,0 59.548,-26.686 59.659,-59.49c0.054,-15.987 -6.05,-31.031 -17.185,-42.351c-11.138,-11.324 -25.964,-17.562 -41.739,-17.562c-38.026,0 -74.129,16.922 -107.847,34.255c-22.985,11.813 -45.99,24.658 -68.24,37.079c-14.225,7.941 -28.936,16.158 -43.543,24.048c-35.108,18.963 -77.269,38.348 -123.798,38.348c-18.092,-0 -35.679,-3.604 -52.274,-10.715c-4.453,-1.909 -6.536,-7.111 -4.652,-11.623c1.884,-4.511 7.019,-6.622 11.472,-4.717c14.424,6.184 29.716,9.318 45.454,9.318c42.673,0 82.361,-18.334 115.562,-36.264c14.5,-7.836 29.157,-16.018 43.328,-23.931c22.381,-12.492 45.519,-25.414 68.769,-37.363c35.609,-18.303 73.88,-36.171 115.769,-36.175c20.466,0 39.695,8.092 54.142,22.78c14.446,14.687 22.361,34.196 22.292,54.936c-0.146,42.552 -34.763,77.168 -77.169,77.168l-94.775,-0c-0.839,-0 -1.52,0.69 -1.52,1.54l-0,75.477c-0,20.735 -7.984,40.217 -22.48,54.854c-14.435,14.571 -33.584,22.585 -53.954,22.585Z" style="fill:#1b5faa;fill-rule:nonzero;"></path><path d="M77.36,382.192c-20.466,-0 -39.692,-8.092 -54.142,-22.78c-14.447,-14.687 -22.361,-34.196 -22.292,-54.935c0.145,-42.553 34.763,-77.169 77.169,-77.169l94.774,0c0.839,0 1.521,-0.69 1.521,-1.54l-0,-75.477c-0,-20.735 7.983,-40.217 22.479,-54.854c14.436,-14.571 33.584,-22.585 53.955,-22.585l0.271,-0c41.997,0.147 76.166,35.22 76.166,78.184l0,49.66c0,4.9 -3.921,8.868 -8.756,8.868c-4.833,0 -8.754,-3.968 -8.754,-8.868l0,-49.66c0,-33.215 -26.339,-60.332 -58.717,-60.444c-0.069,-0.004 -0.142,-0.004 -0.21,-0.004c-15.703,0 -30.468,6.18 -41.595,17.414c-11.176,11.286 -17.33,26.303 -17.33,42.289l0,75.477c0,10.63 -8.538,19.281 -19.03,19.281l-94.774,-0c-32.784,-0 -59.548,26.686 -59.659,59.49c-0.054,15.987 6.049,31.031 17.184,42.351c11.138,11.324 25.964,17.562 41.74,17.562c38.025,-0 74.128,-16.922 107.846,-34.255c22.982,-11.813 45.986,-24.654 68.233,-37.075c14.228,-7.945 28.939,-16.158 43.55,-24.052c35.108,-18.963 77.269,-38.348 123.799,-38.348c18.092,0 35.678,3.604 52.273,10.715c4.453,1.909 6.536,7.111 4.652,11.623c-1.884,4.515 -7.022,6.622 -11.471,4.713c-14.424,-6.18 -29.717,-9.314 -45.454,-9.314c-42.674,-0 -82.361,18.334 -115.562,36.268c-14.501,7.832 -29.162,16.018 -43.337,23.932c-22.376,12.491 -45.511,25.409 -68.76,37.358c-35.61,18.303 -73.88,36.175 -115.769,36.175Z" style="fill:#1b5faa;fill-rule:nonzero;"></path></g></g></g></g></svg>